<?xml version="1.0" encoding="utf-8"?>
<!-- Svg Vector Icons : http://www.onlinewebfonts.com/icon -->
<!DOCTYPE svg PUBLIC "-//W3C//DTD SVG 1.1//EN" "http://www.w3.org/Graphics/SVG/1.1/DTD/svg11.dtd">
<svg version="1.1" xmlns="http://www.w3.org/2000/svg" xmlns:xlink="http://www.w3.org/1999/xlink" x="0px" y="0px" viewBox="0 0 1000 1000" enable-background="new 0 0 1000 1000" xml:space="preserve">
<metadata> Svg Vector Icons : http://www.onlinewebfonts.com/icon </metadata>
<g><g transform="translate(0.000000,511.000000) scale(0.100000,-0.100000)"><path d="M7841.5,4724.1c-146.7-50.6-227.6-118.8-255.4-209.9c-25.3-88.5-45.5-96.1-139.1-43c-86,50.6-247.8,45.5-354-7.6c-111.3-55.6-207.3-242.8-278.1-546.2c-78.4-331.2-73.3-533.5,25.3-811.7c98.6-275.6,230.1-541.1,346.4-700.4c48-65.7,108.7-182.1,136.5-260.4c93.6-265.5,60.7-397-184.6-761.1c-134-197.2-182.1-290.8-189.6-374.2l-12.6-108.7l-126.4,20.2c-70.8,12.6-161.8,32.9-207.3,45.5c-209.9,65.8-533.5,83.5-1595.5,88.5c-1203.6,2.5-1254.2,0-1800.3-149.2C2607.4,746.7,1752.8,162.6,1383.6-335.5c-199.8-268-485.5-728.2-510.8-819.2c-15.2-48.1-32.9-151.7-40.5-227.6c-7.6-75.9-50.6-270.6-93.5-429.9c-73.3-268-80.9-323.7-80.9-677.6v-389.4l-106.2,12.6c-88.5,10.1-106.2,2.5-118.8-40.4c-7.6-35.4-27.8-45.5-63.2-35.4c-30.3,7.6-53.1,2.5-53.1-10.1s-27.8-22.7-63.2-22.7c-58.2,0-60.7-5.1-37.9-53.1c25.3-43,20.2-53.1-25.3-65.7c-68.3-17.7-53.1-65.7,25.3-83.4c58.2-15.2,58.2-17.7-32.9-73.3c-106.2-65.7-111.3-93.6-7.6-55.6c73.3,30.3,75.9,30.3,40.5-58.2c-20.2-58.2-17.7-65.7,25.3-65.7c63.2,0,65.7-37.9,7.6-75.9c-37.9-20.2-32.9-22.8,22.8-10.1c78.4,17.7,88.5-2.5,32.9-65.7c-37.9-40.4-35.4-43,30.3-30.4c68.3,12.6,68.3,10.1,27.8-37.9c-43-45.5-40.4-48,50.6-37.9c93.6,12.6,93.6,12.6,45.5-40.4c-48-53.1-48-53.1,40.5-50.6c106.2,2.5,149.2-20.2,128.9-68.3c-7.6-25.3,2.5-37.9,37.9-37.9c30.3,0,60.7-12.6,68.3-25.3c7.6-15.2,60.7-25.3,116.3-25.3c93.5,0,101.1-5.1,86-53.1c-15.2-48.1-10.1-53.1,50.6-40.5c45.5,7.6,101.1-5.1,149.2-35.4c55.6-35.4,65.7-48,32.9-48c-27.8,0-37.9-10.1-27.8-27.8c20.2-32.9,624.5-10.1,690.3,25.3c20.2,12.6,70.8,12.6,113.8,0c118.8-35.4,351.5-27.8,467.8,15.2c58.2,20.2,156.8,73.3,222.5,116.3c128.9,88.5,121.4,96.1,68.3-93.5c-17.7-68.3,88.5-197.2,225-268c93.6-45.5,126.4-50.6,295.8-30.3c103.7,12.6,472.8,20.2,819.2,17.7c617-5.1,634.7-5.1,816.7-70.8c182-68.3,192.2-68.3,450.1-40.4c209.9,20.2,298.4,43,419.8,106.2l154.2,78.4l-12.6,101.1c-20.2,156.8-88.5,227.6-273.1,293.3c-149.2,53.1-189.6,55.6-477.9,40.5c-434.9-22.8-852.1-15.2-910.3,15.2c-58.1,30.4-65.7,123.9-17.7,182.1c15.2,20.2,75.9,70.8,131.5,111.2c55.6,37.9,123.9,96.1,151.7,129c45.5,50.6,419.7,285.7,945.7,594.2c118.8,68.3,260.4,156.7,316.1,194.7c101.1,70.8,303.4,179.5,331.2,179.5c32.9,0,0-86-179.5-450.1c-166.9-333.8-189.6-402.1-177-480.4c7.6-50.6,32.9-116.3,58.2-146.7c25.3-30.4,166.9-214.9,318.6-409.6c356.5-465.3,384.3-493.1,556.3-556.3c131.5-50.6,164.4-53.1,328.7-27.8c101.1,15.2,265.5,60.7,366.6,101.1c154.3,60.7,222.5,73.3,404.6,73.3c252.9,0,381.8,30.3,447.6,101.1c45.5,50.6,45.5,55.6-27.8,159.3c-86,121.4-227.6,209.9-376.8,232.6c-131.5,22.8-288.3,113.8-386.9,225c-151.7,174.5-214.9,543.6-146.7,852.1c60.7,275.6,108.7,336.3,331.2,440c323.7,146.6,563.9,424.8,809.1,935.6c101.1,207.3,270.6,677.6,338.8,940.6c25.3,91,43,111.2,136.5,144.1c58.1,22.8,179.5,50.6,270.6,63.2c111.3,17.7,242.7,65.8,404.6,146.7c212.4,108.7,245.3,134,295.8,237.7c111.2,217.5,70.8,432.4-184.6,945.7c-111.3,222.5-141.6,311-154.3,447.6c-15.2,164.4-20.2,177-134,283.2c-65.7,63.2-225,164.4-351.5,230.1c-273.1,136.5-417.2,268-460.2,422.3c-98.6,369.2-189.6,1142.9-164.4,1413.4c17.7,209.9-20.3,422.3-111.3,604.3C8157.6,4729.2,8033.7,4794.9,7841.5,4724.1z"/></g></g>
</svg>