<svg version="1.1" xmlns="http://www.w3.org/2000/svg" xmlns:xlink="http://www.w3.org/1999/xlink"
  x="0px" y="0px" viewBox="0 0 1000 1000" enable-background="new 0 0 1000 1000" xml:space="preserve">
<g><g transform="translate(0.000000,511.000000) scale(0.100000,-0.100000)">
<path d="M7040.4,3080.9c-312-51.1-641.9-309.4-774.9-603.5c-35.8-81.8-69.1-150.9-71.6-156c-2.6-2.6-112.5,51.1-245.5,120.2c-672.6,355.5-1173.8,462.9-1912.9,411.7c-1069-71.6-1928.2-409.2-2588-1017.8C670.2,1114.3,171.6-8.3,105.1-1197.5c-40.9-685.4,163.7-1074.1,693-1322.1c511.5-240.4,1115-314.5,2792.6-345.2l925.7-17.9l71.6,56.3c38.4,30.7,135.5,99.7,212.3,150.9c278.7,189.2,398.9,450.1,337.6,744.2c-40.9,194.3-204.6,519.1-363.2,710.9c-135.5,168.8-158.6,253.2-81.8,322.2c110,99.7,230.2,20.5,442.4-294.1c194.4-286.4,329.9-644.4,329.9-877.1c0-140.7-66.5-386.1-135.5-496.1c-30.7-51.2-99.7-143.2-156-204.6l-102.3-110l1877.1,12.8c2058.6,12.8,2150.7,20.5,2467.8,168.8c214.8,99.7,324.8,204.6,411.7,391.3c69.1,150.9,74.2,181.6,71.6,455.2c-2.6,240.4-15.4,337.6-71.6,524.2C9654-744.9,9326.7-154.1,8937.9,280.6c-71.6,81.8-125.3,148.3-120.2,150.9c429.6,260.8,598.4,534.5,598.4,976.9c0,207.1-10.2,248.1-87,416.8c-66.5,138.1-127.9,225-248,335c-222.5,209.7-378.5,268.5-716,271.1c-245.5,0-263.4-5.1-450.1-97.2c-306.9-150.9-503.8-396.4-567.7-713.5c-15.3-81.8-35.8-153.4-43.4-156c-7.7-2.6-51.2,38.4-97.2,89.5l-84.4,97.2l46,143.2c115.1,370.8,455.2,700.7,836.2,815.8l97.2,28.1l-99.7,115.1c-138.1,153.4-345.2,271.1-557.5,317.1C7250.1,3111.6,7224.6,3111.6,7040.4,3080.9z M8106.8,216.7c176.5-48.6,327.3-217.4,363.1-409.2c38.4-202-120.2-473.1-312-537c-345.2-112.5-672.6,110-672.6,462.9c0,227.6,143.2,419.4,358,480.8C7963.6,250,7994.3,250,8106.8,216.7z"/></g></g>
</svg>
