<svg version="1.1" xmlns="http://www.w3.org/2000/svg" xmlns:xlink="http://www.w3.org/1999/xlink" x="0px" y="0px" viewBox="0 0 1000 1000" enable-background="new 0 0 1000 1000" xml:space="preserve">
<metadata> Svg Vector Icons : http://www.onlinewebfonts.com/icon </metadata>
<g><g transform="translate(0.000000,511.000000) scale(0.100000,-0.100000)"><path d="M6962.4,4890.6c-141.6-132.6-287.7-343.9-323.7-467.5c-15.7-53.9-49.5-98.9-96.7-123.6c-150.6-89.9-325.9-290-656.3-753c-762-1065.5-1258.8-1649.9-2301.8-2708.6C2684.7-70.4,2495.9-299.7,2280.1-735.8c-159.6-319.2-213.5-528.2-245-953.1c-45-568.7-27-793.5,85.4-1049.7l42.7-94.4l-152.8-35.9c-553-134.9-899.1-404.6-899.1-699.1c0-305.7,436.1-705.8,1029.5-941.8c449.6-179.8,937.4-260.7,1692.6-276.5c606.9-13.5,1043,9,1908.4,96.7c789,78.7,1079,132.6,1079,202.3c0,38.2-60.7,62.9-254,107.9c-505.8,116.9-860.9,148.3-2038.8,170.8c-1036.3,20.2-1225.1,36-1674.6,148.3c-382.1,96.7-784.5,321.5-746.3,422.6c6.7,18,51.7,45,98.9,56.2c58.4,15.7,838.4,24.7,2382.7,24.7h2297.3l15.7,78.7c31.5,170.8-45,337.2-184.3,404.6c-110.2,54-402.4,69.7-606.9,36c-83.2-15.7-155.1-22.5-159.6-15.7c-6.7,6.7,18,51.7,56.2,98.9c101.1,125.9,242.8,400.1,285.5,553c56.2,191.1,38.2,436.1-40.5,609.2c-65.2,139.4-240.5,339.4-373.2,420.4l-76.4,47.2l13.5,148.4c22.5,263,177.6,636.1,496.8,1202.6c184.3,328.2,373.1,539.5,467.5,526c76.4-11.2,112.4-98.9,96.7-245c-11.2-101.1-4.5-134.9,24.7-166.3c54-51.7,130.4-78.7,233.8-78.7c159.6,0,224.8,159.6,224.8,550.7c0,204.6-2.2,215.8-69.7,290c-38.2,42.7-121.4,105.7-188.8,137.1l-119.1,58.4l168.6,263c94.4,143.9,213.5,355.2,265.2,465.3c54,112.4,123.6,227,155.1,256.3c62.9,60.7,83.2,62.9,535,49.5c191.1-6.8,231.5,0,337.2,47.2c65.2,31.5,152.9,85.4,195.6,121.4c94.4,78.7,249.5,314.7,249.5,377.6c0,27-56.2,123.6-125.9,215.8c-155.1,204.6-197.8,299-267.5,602.4c-71.9,296.7-184.3,514.8-355.2,685.6c-130.4,130.4-132.6,132.6-141.6,281c-20.2,319.2-139.4,544-287.7,544c-134.9,0-499-283.2-588.9-454.1c-18-36-58.5-67.4-94.4-76.4c-33.7-6.7-78.7-18-101.2-24.7c-33.7-9-36-2.2-15.7,51.7c33.7,85.4,103.4,179.8,245,330.4c98.9,105.6,116.9,134.9,92.1,150.6C7169.2,5036.7,7088.3,5009.7,6962.4,4890.6z M8133.5,3499.2c114.6-89.9,45-290-103.4-290c-150.6,0-211.3,182.1-94.4,287.7C8005.4,3557.6,8057.1,3559.9,8133.5,3499.2z"/></g></g>
</svg>
